<?xml version="1.0" encoding="utf-8"?>
<!-- Generator: Adobe Illustrator 27.5.0, SVG Export Plug-In . SVG Version: 6.00 Build 0)  -->
<svg version="1.1" id="Capa_1" xmlns="http://www.w3.org/2000/svg" xmlns:xlink="http://www.w3.org/1999/xlink" x="0px" y="0px"
	 viewBox="0 0 2122 2122" style="enable-background:new 0 0 2122 2122;" xml:space="preserve">
<path style="fill:#C27262;" d="M1471.792,767.002c0.922-3.118,1.695-6.521,2.212-10.399c9.631-72.302-7.963-126.463-7.963-126.463
	s-4.747-21.488-11.711-23.422c-6.964-1.934-12.619,3.366-12.619,3.366s-7.209-9.392-14.263-7.822
	c-7.055,1.571-11.572,6.714-11.572,6.714s-6.714-11.572-16.374-10.945c-9.66,0.626-11.722,12.555-11.722,12.555
	s-9.775-73.897-25.681-69.05c-12.792,3.899-6,68.755-2.849,94.014l-0.174,0.009l-0.817,31.541c0,0-31.621-31.505-40.61-22.971
	c-8.988,8.534,60.993,118.54,60.993,118.54s0.067,0.051,0.088,0.068c-0.463,6.696-9.172,131.712-24.647,276.534
	c-1.305,12.209-2.654,24.552-4.054,36.983l24.394,63.292c0.876,2.271-1.092,5.95-4.387,8.234l-25.055,17.365
	c-0.219,36.954-0.439,73.907-0.658,110.862c-0.02,3.403-5.301,3.399-5.281,0c0.212-35.729,0.424-71.458,0.636-107.186l-0.94,0.652
	c-0.067,0.511-0.134,1.022-0.201,1.534c-16.297,30.945-35.204,63.387-49.376,77.519c0.115,0.55,0.252,1.12,0.363,1.667l30.34,46.229
	c28.271,66.819,115.568,69.689,146.528,64.004c30.96-5.685,72.156-101.291,72.329-201.857
	C1538.969,1015.059,1494.527,844.712,1471.792,767.002z"/>
<path style="fill:#C27262;" d="M856.77,1431.702c115.935-43.475,247.729-141.982,278.51-165.646c2.926-2.25,4.87-3.769,5.87-4.554
	c21.415,1.5,44.078,2.932,63.772,0.713c5.444-0.613,10.68-1.479,15.575-2.732c29.621-7.577,54.5-17.685,58.554-23.422
	c3.42-4.84,0-13.778,0-13.778s14.466-9.644,16.534-13.778c1.111-2.222-0.656-4.63-3.35-6.805
	c-4.775-3.856-12.495-6.973-12.495-6.973s13.158-0.014,24.513-1.356c8.234-0.974,15.526-2.642,16.131-5.532
	c0.262-1.253-0.808-2.53-2.695-3.78c-8.463-5.611-33.817-10.687-33.817-10.687s60.89-1.423,59.244-10.333
	c-2.018-10.923-118.707-15.973-118.707-15.973s15.22-16.926,20.942-29.562c2.822-6.233,3.346-11.427-1.433-13.02
	c-1.418-0.473-3.82-0.137-6.951,0.811c-28.825,8.729-121.699,71.301-121.699,71.301l-323.845,86
	c-31.37,20.78-139.818,67.913-181.531,68.491c4.938,21.353,14.312,56.468,27.815,84.079c6.548,13.389,34.911,25.71,72.943,31.237
	C752.941,1452.553,807.191,1450.295,856.77,1431.702z"/>
<path style="fill:#C7E3D0;" d="M1221.186,878.535l-135.709-53.733c0,0,42.711,91.621-34.444,94.377
	c-123.703,4.418-217.685-95.065-217.685-95.065l-150.749,64.149c-0.958,0.054-1.915,0.227-2.871,0.605
	c-2.033,0.805-4.025,1.893-5.989,3.165l-2.277,0.969c0,0,0.019,0.24,0.048,0.592c-33.144,24.698-56.236,114.921-71.003,217.093
	c-10.657,73.74-19.289,166.708-6.889,213.552c1.314,4.965,7.261,6.977,16.273,6.853c41.713-0.578,150.161-47.712,181.531-68.491
	l323.845-86c0,0,92.875-62.572,121.699-71.301l13.705-9.499c-10.228-52.898-17.37-106.388-21.402-160.117
	c-0.255-3.396,5.029-3.368,5.282,0c1.504,20.047,3.43,40.06,5.801,60.022c3.852,32.432,8.936,64.711,15.098,96.782l71.876-49.815
	c3.758-2.604,12.772,9.562,14.45,13.171c0.366,0.368,0.686,0.789,0.892,1.323l7.358,19.091c1.4-12.432,2.75-24.774,4.054-36.983
	C1331.533,978.182,1288.306,891.695,1221.186,878.535z"/>
<path style="fill:#82BCA9;" d="M1136.444,856.462c-0.811-3.299-5.906-1.901-5.093,1.404c5.834,23.723-3.216,48.206-18.998,66.097
	c-17.689,20.052-42.527,30.659-68.895,33.106c-28.977,2.69-58.074-3.385-85.413-12.655c-26.137-8.863-51.157-20.931-74.449-35.73
	c-25.923-16.471-49.573-36.358-70.289-59.03c-2.298-2.515-6.024,1.228-3.734,3.734c38.564,42.209,87.42,74.755,141.231,94.081
	c29.953,10.758,64.974,18.195,97.423,14.277c6,37.872,11.999,75.744,17.997,113.616c-3.791,1.01-7.293,2.668-9.994,6.032
	c-2.107,2.626,1.607,6.386,3.735,3.735c1.909-2.378,4.373-3.734,7.074-4.616c1.051,6.635,2.102,13.272,3.153,19.908
	c0.531,3.347,5.621,1.926,5.093-1.404c-1.039-6.557-2.077-13.114-3.116-19.671c3.726-0.563,7.587-0.785,11.016-1.623
	c7.72-1.887,14.501-6.765,14.579-15.373c0.048-5.331-1.563-10.843-2.525-16.054c-1.088-5.888-2.175-11.776-3.262-17.664
	c-2.138-11.573-4.275-23.145-6.412-34.717c-2.438-13.197-4.875-26.393-7.313-39.59c-0.005-0.025-0.019-0.037-0.025-0.062
	c12.415-4.96,23.982-12.278,34.142-22.58C1131.708,912.072,1143.199,883.93,1136.444,856.462z"/>
<path style="fill:#222032;" d="M1264.346,567.058c-4.437-21.878-28.462-68.416-34.893-140.082
	c-5.091-56.734,8.91-135.928-2.067-171.53c-16.657-54.021-69.186-83.302-115.732-107.465
	c-20.568-10.677-44.123-36.572-67.165-34.099c-8.91,0.956-27.182,9.044-41.775,16.099c-5.19-1.582-10.024-2.729-13.996-3.317
	c-22.925-3.396-45.8,5.376-66.782,15.218c-47.479,22.272-127.295,56.123-146.109,109.431c-12.4,35.133-4.133,105.398-21.7,177.73
	c-16.981,69.922-36.129,112.808-41.442,134.49c-15.601,63.672,13.754,135.782,69.39,170.454
	c-7.891-18.532-12.267-38.554-12.826-58.688c9.083,30.876,45.917,69.378,75.809,81.304c-11.424-31.064-29.085-76.921-26.567-109.923
	c6.849,36.754,24.083,69.962,49.524,95.301c15.351,15.29,33.687,27.718,54.541,36.322c-35.132-57.866-23.766-148.797-15.499-218.03
	c10.316-61.9,46.146-96.535,85.163-128.428c2.183-0.661,4.61-1.345,7.346-2.049c21.426-5.519,37.233-1.409,44.224-0.96
	c7.668,0.491,8.41-23.862,2.718-24.614c-3.148-0.415-11.675-0.177-22.217,1.708c40.346-33.233,77.643-70.623,87.361-139.118
	c84.06-9.007,96.062,99.615,96.53,160.019c-2.654-3.156-6.976-7.122-14.261-11.703c-16.759-10.536-36.288-13.181-41.186-12.753
	c-4.898,0.428-6.95,24.613-0.41,24.552c5.964-0.055,19.788-3.25,37.306,3.414c15.287,5.816,16.814,9.585,18.454,11.337
	c-0.254,12.652-0.546,21.865-0.619,24.073c-5.021,87.967-17.269,188.923-52.396,233.019c-2.334,17.194-6.589,34.025-13.453,50.599
	c30.348-10.716,51.397-42.424,61.713-72.91c2.352,21.244-1.418,45.411-10.047,63.611
	C1250.272,707.663,1277.375,631.306,1264.346,567.058z"/>
<path style="fill:#222032;" d="M1075.603,724.069l5.171,52.752c35.195-13.253,51.162-35.81,61.534-65.451
	c-1.903,1.429-3.84,2.765-5.854,3.9C1109.588,730.426,1075.603,724.069,1075.603,724.069z"/>
<path style="fill:#6699D1;" d="M1308.477,1676.254c-48.222,26.866-586.726,40.644-626.682,11.711
	c-0.814-0.59-1.516-1.303-2.236-1.996c-96.949,115.884-96.963,321.635-96.963,321.635h85.027h354.279h354.28
	C1376.183,2007.603,1364.374,1752.719,1308.477,1676.254z"/>
<path style="fill:#C7E3D0;" d="M1338.536,1171.007c0.067-0.511,0.134-1.022,0.201-1.534l-21.047,14.587
	c1.886,1.25,2.957,2.527,2.695,3.78c-0.605,2.891-7.897,4.558-16.131,5.532l-12.018,8.329c2.694,2.175,4.46,4.583,3.35,6.805
	c-2.068,4.133-16.534,13.778-16.534,13.778s3.42,8.938,0,13.778c-4.054,5.737-28.933,15.845-58.554,23.422
	c-4.895,1.252-10.131,2.118-15.575,2.732l-35.59,24.666c-3.295,2.283-7.43,2.835-9.25,1.218l-24.802-22.043
	c-30.781,23.664-162.575,122.171-278.51,165.646c-49.579,18.593-103.829,20.851-146.12,14.705
	c-1.643,74.146-63.457,208.367-31.09,239.562c0.719,0.693,1.421,1.406,2.236,1.996c39.955,28.933,578.46,15.155,626.682-11.711
	c30.089-16.764-48.797-146.964-50.092-190.13c-1.282-42.713,7.573-79.597,10.333-145.353c0,0,26.177-33.066,24.799-61.31
	c-0.44-9.029-1.888-18.878-3.994-29.268c-0.111-0.547-0.248-1.117-0.363-1.667
	C1303.332,1234.394,1322.239,1201.952,1338.536,1171.007z"/>
<path style="fill:#C7E3D0;" d="M1071.374,1074.308c3.08-0.463,6.213-0.781,9.179-1.4c3.522-0.735,7.467-1.92,9.901-4.745
	c3.313-3.845,1.76-9.287,0.932-13.765c-2.025-10.963-4.05-21.927-6.075-32.89c-4.027-21.797-8.052-43.594-12.078-65.391
	c-6.423,2.204-13.048,3.813-19.806,4.898C1059.41,998.779,1065.392,1036.543,1071.374,1074.308z"/>
<path style="fill:#C27262;" d="M1189.633,430.342c-17.518-6.664-31.342-3.469-37.306-3.414c-6.54,0.061-4.489-24.124,0.41-24.552
	c4.898-0.428,24.427,2.216,41.186,12.753c7.285,4.58,11.607,8.547,14.261,11.703c-0.468-60.404-12.47-169.026-96.53-160.019
	c-9.719,68.495-47.015,105.885-87.361,139.118c10.542-1.885,19.069-2.124,22.217-1.708c5.692,0.751,4.95,25.105-2.718,24.614
	c-6.992-0.448-22.798-4.559-44.224,0.96c-2.736,0.705-5.163,1.388-7.346,2.049c-39.017,31.892-74.846,66.528-85.163,128.428
	c-8.267,69.232-19.633,160.164,15.499,218.03c-20.854-8.604-39.19-21.032-54.541-36.322c-5.926,30.568-16.726,59.107-34.668,82.132
	c0,0,93.981,99.483,217.685,95.065c77.155-2.755,34.444-94.377,34.444-94.377c-65.444-19.977-122.62-84.043-148.786-175.233
	c73.105,66.018,138.912,74.5,138.912,74.5s33.985,6.357,60.851-8.798c2.013-1.135,3.951-2.471,5.854-3.9
	c4.557-3.422,8.812-7.635,12.766-12.599c35.127-44.096,47.375-145.052,52.396-233.019c0.073-2.208,0.364-11.421,0.619-24.073
	C1206.447,439.927,1204.921,436.158,1189.633,430.342z"/>
<path style="fill:#9C4D42;" d="M936.691,649.569c26.167,91.19,83.343,155.256,148.786,175.233l-4.704-47.981l-5.171-52.752
	C1075.603,724.069,1009.796,715.587,936.691,649.569z"/>
<path style="fill:#222032;" d="M1031.592,496.689c8.253,0,14.86-7.945,14.86-17.65c0-9.857-6.608-17.765-14.86-17.765
	c-7.985,0-14.71,7.908-14.71,17.765C1016.882,488.744,1023.607,496.689,1031.592,496.689z"/>
<path style="fill:#222032;" d="M1166.477,496.689c8.023,0,14.709-7.909,14.709-17.689c0-9.78-6.686-17.726-14.709-17.726
	c-8.253,0-14.823,7.945-14.823,17.726C1151.654,488.781,1158.224,496.689,1166.477,496.689z"/>
<path style="fill:#9C4D42;" d="M1105.331,567.924c3.174,0.4,20.016,2.339,24.536-0.933c4.651-3.368,5.659-16.566,5.22-20.312
	c0.063-3.044-2.21-5.982-3.93-8.269c-2.526-3.357-5.812-6.865-6.641-11.112c-0.651-3.333-5.742-1.922-5.093,1.404
	c0.78,3.993,3.389,7.401,5.796,10.564c1.134,1.491,2.305,2.964,3.318,4.542c0.383,0.597,0.794,1.219,1.057,1.881l0.193,0.998
	l-0.75,0.704c-1.002,0.931-2.029,1.836-3.078,2.715c-2.088,1.749-4.277,3.368-6.545,4.875c-4.72,3.136-9.771,5.765-15.067,7.782
	C1101.35,563.904,1102.468,568.53,1105.331,567.924z"/>
<path style="fill:#9C4D42;" d="M1130.001,626.94c-9.331,3.242-19.351,3.663-28.902,1.111c-3.287-0.878-4.69,4.215-1.404,5.093
	c10.407,2.781,21.528,2.426,31.71-1.112C1134.596,630.924,1133.224,625.82,1130.001,626.94z"/>
<path style="fill:#3B6BA9;" d="M1051.868,1999.215c6.337-9.81,12.673-19.62,19.01-29.431c1.485-2.3,2.971-4.6,4.457-6.9
	c0.281-0.435,0.636-0.9,0.907-1.373c0.882-0.187,2.883-1.615,3.381-1.879c2.582-1.367,5.164-2.734,7.745-4.101
	c1.008-0.534,2.026-1.057,3.035-1.588c-0.358,5.478-0.717,10.956-1.076,16.434c-0.222,3.394,5.06,3.38,5.281,0
	c0.422-6.431,0.842-12.863,1.263-19.295c8.631-4.501,17.277-8.981,25.781-13.703c1.704-0.946,2.234-2.153,2.361-3.996
	c0.157-2.271,0.285-4.543,0.429-6.815c1.444-22.992,2.888-45.984,4.333-68.976c1.899-30.238,3.799-60.477,5.698-90.715
	c0.73-11.623,1.46-23.245,2.191-34.868c0.362-5.768,0.959-11.576,1.09-17.355l0.052-0.821c0.213-3.394-5.069-3.382-5.281,0
	c-0.459,7.311-0.918,14.622-1.377,21.933c-1.104,17.561-2.207,35.121-3.31,52.682c-1.335,21.25-2.67,42.5-4.005,63.751
	c-1.155,18.381-2.31,36.761-3.464,55.141c-0.381,6.064-0.762,12.129-1.143,18.193c-0.146,2.318-0.665,5.039-0.594,7.474
	c-7.451,3.944-14.901,7.889-22.351,11.833c3.709-56.66,7.418-113.32,11.127-169.981c1.205-18.414,2.411-36.828,3.616-55.242
	c0.222-3.394-5.06-3.38-5.281,0c-4.267,65.173-8.533,130.345-12.799,195.518c-0.711,10.867-1.423,21.734-2.134,32.601
	c-3.177,1.681-6.353,3.363-9.529,5.044c-3.285,1.739-7.709,3.104-9.791,6.327c-4.196,6.497-8.393,12.994-12.589,19.491
	c-3.865,5.983-7.73,11.967-11.595,17.95C1045.458,1999.413,1050.028,2002.063,1051.868,1999.215z"/>
<path style="fill:#3B6BA9;" d="M1337.248,1890.518c1.467,3.065,6.022,0.388,4.561-2.666c-21.148-44.194-37.931-90.441-50.023-137.92
	c-3.443-13.519-6.498-27.133-9.187-40.822c-0.655-3.332-5.746-1.921-5.093,1.404c9.564,48.677,23.922,96.383,42.897,142.223
	C1325.678,1865.481,1331.295,1878.078,1337.248,1890.518z"/>
<path style="fill:#82BCA9;" d="M1240.354,995.704c-2.371-19.963-4.297-39.976-5.801-60.022c-0.253-3.368-5.537-3.396-5.282,0
	c4.032,53.728,11.174,107.219,21.402,160.117l4.779-3.313C1249.29,1060.415,1244.206,1028.136,1240.354,995.704z"/>
<path style="fill:#FFFFFF;" d="M1051.386,157.639c-2.56-2.212-6.312,1.508-3.734,3.735c25.795,22.29,46.501,49.94,60.652,80.955
	c1.408,3.088,5.962,0.407,4.56-2.666C1098.55,208.291,1077.476,180.186,1051.386,157.639z"/>
<path style="fill:#FFFFFF;" d="M1116.528,618.139c28.319,0,45.759-22.389,44.381-27.555c-1.378-5.166-14.736-2.945-43.055-2.945
	c-28.319,0-51.276-5.648-51.276,2.652C1066.578,598.591,1088.209,618.139,1116.528,618.139z"/>
<path style="fill:#9C4D42;" d="M1339.677,1168.822c-0.212,35.729-0.424,71.457-0.636,107.186c-0.02,3.399,5.261,3.403,5.281,0
	c0.219-36.954,0.439-73.908,0.658-110.862L1339.677,1168.822z"/>
<path style="fill:#9C4D42;" d="M1402.95,698.661c10.235,12.207,15.085,28.307,14.064,44.12c-0.219,3.394,5.063,3.38,5.282,0
	c2.217-34.336-22.506-65.449-56.511-70.867c-3.326-0.53-4.757,4.559-1.404,5.092C1379.381,679.397,1393.167,686.994,1402.95,698.661
	z"/>
<path style="fill:#9C4D42;" d="M1387.783,654.11c1.286,5.121,3.057,10.258,5.45,14.978c1.752,3.457,4.435,6.804,8.546,7.275
	c8.185,0.938,11.535-6.961,13.387-14.024c1.221,4.482,3.595,8.379,8.689,9.486c8.539,1.855,11.19-7.459,12.557-13.8
	c0.102-0.472,0.204-0.945,0.305-1.417c0.452,6.148,1.818,12.994,8.349,15.077c7.125,2.273,11.289-4.514,12.857-10.384
	c2.428-9.086,3.292-18.639,2.941-28.02c-0.127-3.388-5.409-3.404-5.281,0c0.164,4.371-0.935,39.078-10.152,32.716
	c-2.583-1.783-3.086-5.296-3.351-8.185c-0.3-3.281-0.391-6.596-0.411-9.888c-0.044-7.085,0.451-14.167,1.483-21.176
	c0.481-3.271-4.361-4.798-5.092-1.404c-1.729,8.02-3.457,16.04-5.185,24.06c-0.78,3.615-1.471,7.263-2.358,10.853
	c-0.639,2.589-1.777,6.777-5.178,6.454c-7.229-0.685-6.349-14.191-6.503-19.102c-0.056-1.803,0.051-3.606,0.061-5.41
	c0.845-6.725,1.332-13.493,1.377-20.275c0.019-2.877-4.766-3.721-5.187-0.702c-0.033,0.234-0.051,0.469-0.082,0.703
	c-0.005-0.001-0.008-0.001-0.012-0.002c-0.001,0.046-0.004,0.092-0.004,0.138c-0.942,6.987-1.447,14.008-1.46,21.043
	c-0.315,2.33-0.682,4.653-1.105,6.97c-0.781,4.276-1.696,8.553-2.866,12.741c-0.905,3.242-2.743,8.726-7.076,8.297
	c-3.526-0.349-5.224-5.649-6.343-8.393c-1.605-3.937-2.855-8.022-3.773-12.173c-1.893-8.561-2.223-17.483-1.01-26.166
	c0.464-3.324-4.624-4.761-5.093-1.404C1384.811,633.385,1385.22,643.896,1387.783,654.11z"/>
<path style="fill:#B3B3B3;" d="M1333.468,1056.436c3.215-2.228,6.565-2.351,8.311-0.595c-1.678-3.609-10.692-15.775-14.45-13.171
	l-71.876,49.815l-4.779,3.313l-13.705,9.499c3.132-0.948,5.533-1.284,6.951-0.811c4.779,1.593,4.256,6.787,1.433,13.02
	L1333.468,1056.436z"/>
<path style="fill:#E6E6E6;" d="M1341.778,1055.842c-1.746-1.757-5.096-1.633-8.311,0.595l-88.116,61.07
	c-5.721,12.636-20.942,29.562-20.942,29.562s116.689,5.05,118.707,15.973c1.646,8.91-59.244,10.333-59.244,10.333
	s25.353,5.076,33.817,10.687l21.047-14.587l0.94-0.652l5.303-3.675l25.055-17.365c3.295-2.284,5.263-5.962,4.387-8.234
	l-24.394-63.292l-7.358-19.091C1342.465,1056.63,1342.144,1056.21,1341.778,1055.842z"/>
<path style="fill:#E6E6E6;" d="M1292.235,1201.702l12.018-8.329c-11.355,1.343-24.513,1.356-24.513,1.356
	S1287.46,1197.846,1292.235,1201.702z"/>
<path style="fill:#E6E6E6;" d="M1141.15,1261.502c-0.999,0.785-2.944,2.305-5.87,4.554l24.802,22.043
	c1.82,1.617,5.954,1.066,9.25-1.218l35.59-24.666C1185.228,1264.434,1162.565,1263.002,1141.15,1261.502z"/>
<path style="fill:#82BCA9;" d="M745.195,975.563c7.203,19.169,10.953,39.556,14.063,59.728c3.674,23.836,6.23,47.828,9.393,71.733
	c3.355,25.35,7.957,50.442,13.292,75.446c5.022,23.539,10.865,47.003,14.416,70.827c0.499,3.35,5.589,1.926,5.093-1.404
	c-3.17-21.267-8.236-42.239-12.784-63.24c-5.55-25.63-10.631-51.34-14.16-77.335c-3.27-24.095-5.848-48.281-9.39-72.339
	c-3.061-20.795-6.681-41.804-13.689-61.686c-6.164-17.487-15.355-34.655-31.1-45.239c-2.829-1.901-5.475,2.672-2.666,4.56
	C731.231,945.735,739.563,960.578,745.195,975.563z"/>
<path style="fill:#3B6BA9;" d="M782.39,1732.384c-31.549,60.546-64.935,124.201-122.278,164.354
	c-2.831,1.983-5.749,3.831-8.672,5.67c1.32-8.118,2.704-16.225,4.29-24.297c7.41-37.728,17.67-74.896,30.677-111.078
	c7.366-20.49,15.626-40.645,24.737-60.42c1.413-3.066-3.139-5.752-4.56-2.666c-16.267,35.306-29.882,71.817-40.607,109.183
	c-8.745,30.467-15.464,61.484-20.37,92.793c-10.5,6.12-21.505,11.35-33.033,15.287c-3.199,1.092-1.825,6.195,1.404,5.093
	c10.779-3.68,20.947-8.366,30.648-13.755c-0.697,4.71-1.484,9.407-2.093,14.13c-2.817,21.819-4.669,43.755-5.588,65.735
	c-0.142,3.399,5.14,3.392,5.281,0c1.164-27.837,3.897-55.587,8.109-83.118c46.005-27.573,80.055-72.744,106.744-118.913
	c10.492-18.15,20.187-36.744,29.873-55.332C788.519,1732.039,783.963,1729.366,782.39,1732.384z"/>
<path style="fill:#3B6BA9;" d="M676.33,1911.636c-4.822,2.755-9.644,5.511-14.467,8.266c-1.2,0.686-1.715,2.423-0.947,3.613
	c0.781,1.212,2.329,1.681,3.613,0.947c4.822-2.755,9.644-5.511,14.467-8.266c1.199-0.686,1.714-2.423,0.947-3.613
	C679.161,1911.371,677.614,1910.902,676.33,1911.636z"/>
<path style="fill:#3B6BA9;" d="M711.234,1879.329c-5.48,4.856-10.962,9.712-16.442,14.568c-1.037,0.919-1.008,2.809,0,3.734
	c1.107,1.016,2.628,0.98,3.735,0c5.48-4.856,10.961-9.712,16.442-14.568c1.037-0.919,1.008-2.81,0-3.734
	C713.862,1878.313,712.341,1878.349,711.234,1879.329z"/>
<path style="fill:#3B6BA9;" d="M737.794,1854.183c-2.755,2.755-5.511,5.511-8.266,8.266c-0.978,0.978-1.051,2.77,0,3.734
	c1.054,0.968,2.691,1.044,3.735,0c2.755-2.755,5.511-5.511,8.266-8.266c0.978-0.978,1.051-2.769,0-3.734
	C740.474,1853.215,738.837,1853.14,737.794,1854.183z"/>
<path style="fill:#3B6BA9;" d="M769.927,1810.371c-1.197-0.633-2.954-0.372-3.614,0.947c-2.755,5.511-5.511,11.022-8.266,16.533
	c-0.617,1.234-0.369,2.918,0.947,3.613c1.197,0.633,2.953,0.372,3.613-0.947c2.755-5.511,5.511-11.022,8.266-16.533
	C771.491,1812.75,771.244,1811.067,769.927,1810.371z"/>
<path style="fill:#3B6BA9;" d="M797.047,1752.017c-2.755,8.267-5.511,16.533-8.267,24.799c-1.077,3.232,4.022,4.618,5.093,1.404
	c2.755-8.266,5.511-16.533,8.266-24.8C803.217,1750.189,798.118,1748.803,797.047,1752.017z"/>
</svg>
